<svg width="24" height="24" viewBox="0 0 24 24" fill="none" xmlns="http://www.w3.org/2000/svg">
<path opacity="0.5" d="M3.172 18.828C4.343 20 6.229 20 10 20H14C17.771 20 19.657 20 20.828 18.828C22 17.657 22 15.771 22 12C22 8.229 22 6.343 20.828 5.172C19.657 4 17.771 4 14 4H10C6.229 4 4.343 4 3.172 5.172C2 6.343 2 8.229 2 12C2 15.771 2 17.657 3.172 18.828Z" fill="black"/>
<path d="M9 16.25C8.80109 16.25 8.61032 16.329 8.46967 16.4697C8.32902 16.6103 8.25 16.8011 8.25 17C8.25 17.1989 8.32902 17.3897 8.46967 17.5303C8.61032 17.671 8.80109 17.75 9 17.75H15C15.1989 17.75 15.3897 17.671 15.5303 17.5303C15.671 17.3897 15.75 17.1989 15.75 17C15.75 16.8011 15.671 16.6103 15.5303 16.4697C15.3897 16.329 15.1989 16.25 15 16.25H9Z" fill="black"/>
</svg>
