<?xml version="1.0" encoding="UTF-8"?>
<!DOCTYPE svg PUBLIC "-//W3C//DTD SVG 1.1//EN" "http://www.w3.org/Graphics/SVG/1.1/DTD/svg11.dtd">
<svg xmlns="http://www.w3.org/2000/svg" version="1.1" width="4000px" height="4000px" style="shape-rendering:geometricPrecision; text-rendering:geometricPrecision; image-rendering:optimizeQuality; fill-rule:evenodd; clip-rule:evenodd" xmlns:xlink="http://www.w3.org/1999/xlink">
<g><path style="opacity:0.993" fill="#00899f" d="M 2036.5,250.5 C 2140.5,250.167 2244.5,250.5 2348.5,251.5C 1903.51,696.986 1458.35,1142.32 1013,1587.5C 980.882,1628.88 973.882,1674.21 992,1723.5C 997.914,1737.01 1005.58,1749.34 1015,1760.5C 1211,1956.5 1407,2152.5 1603,2348.5C 1633.18,2387.11 1639.52,2429.44 1622,2475.5C 1617.34,2485.5 1611.67,2494.83 1605,2503.5C 1578,2530.5 1551,2557.5 1524,2584.5C 1219.83,2279.67 915.667,1974.83 611.5,1670C 1086.7,1196.97 1561.7,723.799 2036.5,250.5 Z"/></g>
<g><path style="opacity:0.997" fill="#00899f" d="M 2577.5,250.5 C 2818.8,491.299 3059.97,732.299 3301,973.5C 3357.64,1040.07 3375.64,1116.07 3355,1201.5C 3343.66,1240.53 3324.33,1274.86 3297,1304.5C 2843.17,1758.33 2389.33,2212.17 1935.5,2666C 1828.84,2667.7 1722.17,2667.86 1615.5,2666.5C 1919.13,2364.71 2222.63,2062.71 2526,1760.5C 2562.39,1713.39 2567.39,1663.05 2541,1609.5C 2535.74,1600.64 2529.74,1592.3 2523,1584.5C 2361.31,1423.81 2199.97,1262.81 2039,1101.5C 1990.23,1041.44 1972.57,973.105 1986,896.5C 1994.52,855.791 2011.86,819.458 2038,787.5C 2217.67,608.326 2397.51,429.326 2577.5,250.5 Z"/></g>
<g><path style="opacity:0.997" fill="#00899f" d="M 1743.5,1282.5 C 1881.05,1276.8 1993.21,1326.8 2080,1432.5C 2152.86,1529.99 2177.2,1638.65 2153,1758.5C 2125.27,1872.85 2060.44,1959.02 1958.5,2017C 1850.8,2072.32 1740.14,2078.98 1626.5,2037C 1529.28,1996.78 1458.44,1928.94 1414,1833.5C 1376.81,1747.52 1370.14,1659.19 1394,1568.5C 1428.52,1452.99 1500.02,1369.16 1608.5,1317C 1651.65,1297.8 1696.65,1286.3 1743.5,1282.5 Z"/></g>
<g><path style="opacity:0.968" fill="#666766" d="M 1483.5,2869.5 C 1486.14,2869.95 1488.47,2871.12 1490.5,2873C 1503.87,2885.37 1517.54,2897.37 1531.5,2909C 1533.33,2910.11 1534.16,2911.61 1534,2913.5C 1457.28,3002.87 1379.95,3091.54 1302,3179.5C 1277.36,3155.31 1272.7,3127.64 1288,3096.5C 1297.62,3083.88 1307.62,3071.54 1318,3059.5C 1374.12,2996.89 1429.29,2933.55 1483.5,2869.5 Z"/></g>
<g><path style="opacity:0.979" fill="#666766" d="M 1557.5,2934.5 C 1559.78,2934.61 1561.78,2935.44 1563.5,2937C 1595.13,2963.63 1626.46,2990.63 1657.5,3018C 1658.55,3019.39 1658.72,3020.89 1658,3022.5C 1599.43,3089.31 1541.1,3156.31 1483,3223.5C 1481.88,3226.96 1482.71,3229.79 1485.5,3232C 1599.17,3232.33 1712.83,3232.67 1826.5,3233C 1877.54,3238.39 1914.71,3263.89 1938,3309.5C 1946.06,3327.64 1950.23,3346.64 1950.5,3366.5C 1771.83,3366.67 1593.17,3366.5 1414.5,3366C 1371.45,3360.4 1340.95,3337.9 1323,3298.5C 1307.88,3259.24 1312.55,3222.57 1337,3188.5C 1411.08,3104.26 1484.58,3019.59 1557.5,2934.5 Z"/></g>
<g><path style="opacity:0.984" fill="#666766" d="M 1092.5,2941.5 C 1136.83,2941.5 1181.17,2941.5 1225.5,2941.5C 1225.33,3076.17 1225.5,3210.83 1226,3345.5C 1232.68,3385.18 1255.85,3408.68 1295.5,3416C 1517.17,3416.67 1738.83,3416.67 1960.5,3416C 1995.08,3410.42 2017.58,3390.92 2028,3357.5C 2028.67,3353.5 2029.33,3349.5 2030,3345.5C 2030.5,3270.17 2030.67,3194.83 2030.5,3119.5C 2074.83,3119.5 2119.17,3119.5 2163.5,3119.5C 2163.67,3196.5 2163.5,3273.5 2163,3350.5C 2156.27,3432.86 2116.43,3493.02 2043.5,3531C 2021.85,3540.75 1999.18,3546.75 1975.5,3549C 1743.83,3549.67 1512.17,3549.67 1280.5,3549C 1210.21,3540.63 1156.71,3506.47 1120,3446.5C 1104.66,3419.48 1095.66,3390.48 1093,3359.5C 1092.5,3220.17 1092.33,3080.83 1092.5,2941.5 Z"/></g>
<g><path style="opacity:0.969" fill="#666766" d="M 2030.5,2941.5 C 2074.83,2941.5 2119.17,2941.5 2163.5,2941.5C 2163.5,2986.17 2163.5,3030.83 2163.5,3075.5C 2119.17,3075.5 2074.83,3075.5 2030.5,3075.5C 2030.5,3030.83 2030.5,2986.17 2030.5,2941.5 Z"/></g>
<g><path style="opacity:0.986" fill="#666766" d="M 811.5,3025.5 C 899.136,3026.22 964.303,3064.55 1007,3140.5C 1019.31,3165.08 1026.65,3191.08 1029,3218.5C 1029.95,3268.19 1029.62,3317.85 1028,3367.5C 1014.97,3443.08 974.133,3497.91 905.5,3532C 857.571,3551.9 808.571,3554.9 758.5,3541C 688.077,3516.91 641.577,3469.41 619,3398.5C 615.639,3386.36 613.305,3374.03 612,3361.5C 611.333,3312.5 611.333,3263.5 612,3214.5C 620.771,3146.08 653.938,3093.25 711.5,3056C 742.391,3037.45 775.724,3027.28 811.5,3025.5 Z M 811.5,3159.5 C 837.621,3157.7 859.788,3166.04 878,3184.5C 888.264,3196.61 894.264,3210.61 896,3226.5C 896.667,3267.5 896.667,3308.5 896,3349.5C 889.96,3387.21 868.126,3409.37 830.5,3416C 792.747,3419.38 765.58,3404.22 749,3370.5C 746.551,3364.37 744.884,3358.04 744,3351.5C 743.333,3309.17 743.333,3266.83 744,3224.5C 751.338,3186.99 773.838,3165.33 811.5,3159.5 Z"/></g>
<g><path style="opacity:0.985" fill="#666766" d="M 3189.5,3058.5 C 3247.17,3058.5 3304.83,3058.5 3362.5,3058.5C 3362.67,3241.5 3362.5,3424.5 3362,3607.5C 3351.96,3671.2 3317.46,3716.03 3258.5,3742C 3244.95,3747.22 3230.95,3750.55 3216.5,3752C 3131.83,3752.67 3047.17,3752.67 2962.5,3752C 2961.34,3708.57 2961.17,3665.07 2962,3621.5C 3033.62,3619.67 3105.45,3618.84 3177.5,3619C 3205.56,3614.94 3222.73,3599.1 3229,3571.5C 3229.5,3564.17 3229.67,3556.84 3229.5,3549.5C 3126.14,3553.84 3047.64,3512.17 2994,3424.5C 2948.56,3337.02 2951.9,3251.35 3004,3167.5C 3048.96,3102.76 3110.79,3066.43 3189.5,3058.5 Z M 3204.5,3191.5 C 3212.83,3191.5 3221.17,3191.5 3229.5,3191.5C 3229.17,3266.4 3229.5,3341.24 3230.5,3416C 3187.06,3421.53 3150.56,3408.36 3121,3376.5C 3091.97,3337.5 3087.63,3295.84 3108,3251.5C 3129.76,3214.86 3161.93,3194.86 3204.5,3191.5 Z"/></g>
<g><path style="opacity:0.983" fill="#666766" d="M 2226.5,3119.5 C 2271.17,3119.5 2315.83,3119.5 2360.5,3119.5C 2360.33,3194.5 2360.5,3269.5 2361,3344.5C 2367.38,3385.21 2390.88,3409.04 2431.5,3416C 2594.17,3416.5 2756.83,3416.67 2919.5,3416.5C 2934.97,3470.78 2965.3,3514.78 3010.5,3548.5C 3009.76,3549.29 3008.92,3549.95 3008,3550.5C 2810.24,3549.67 2612.4,3549.17 2414.5,3549C 2345.5,3540.6 2292.66,3507.1 2256,3448.5C 2239.09,3419.78 2229.43,3388.78 2227,3355.5C 2226.5,3276.83 2226.33,3198.17 2226.5,3119.5 Z"/></g>
<g><path style="opacity:0.971" fill="#666766" d="M 2763.5,3618.5 C 2807.83,3618.5 2852.17,3618.5 2896.5,3618.5C 2896.5,3663.17 2896.5,3707.83 2896.5,3752.5C 2851.83,3752.5 2807.17,3752.5 2762.5,3752.5C 2762.17,3707.76 2762.51,3663.09 2763.5,3618.5 Z"/></g>
</svg>
